<?xml version="1.0" encoding="UTF-8"?>
<svg width="1020px" height="1020px" viewBox="0 0 1020 880" version="1.1" xmlns="http://www.w3.org/2000/svg" xmlns:xlink="http://www.w3.org/1999/xlink">
    <title>AlgoNote</title>
    <g id="AlgoNote" stroke="none" stroke-width="1" fill="none" fill-rule="evenodd">
        <rect fill="#FFFFFF" x="0" y="0" width="1020" height="1020"></rect>
        <g id="编组-2" transform="translate(0.000000, 175.000000)">
            <text id="算法通关手册" font-family="PingFangSC-Semibold, PingFang SC" font-size="120" font-weight="500" letter-spacing="15" fill="#3EAF7C">
                <tspan x="105" y="481">算法通关手册</tspan>
            </text>
            <!-- <text id="AlgoNote" font-family="FiraCode-SemiBold, Fira Code" font-size="100" font-weight="500" letter-spacing="12.5" fill="#3EAF7C">
                <tspan x="213.846154" y="639">AlgoNote</tspan>
            </text> -->
            <g id="编组备份" transform="translate(297.000000, 0.000000)">
                <path d="M50,214.161137 C48.9456382,214.161137 48.0818349,213.34526 48.0054857,212.3104 L48,212.161137 L48,27.1090047 L48.0031848,26.7999241 C48.1833901,18.0622209 55.9884368,11.0093193 65.657958,10.8464798 L66,10.8436019 L66,0 L216,18.9763033 L366,0 L366,10.8436019 L366.342042,10.8464798 C376.011563,11.0093193 383.81661,18.0622209 383.996815,26.7999241 L383.996815,26.7999241 L384,27.1090047 L384,212.161137 L383.994514,212.3104 C383.918165,213.34526 383.054362,214.161137 382,214.161137 L382,214.161137 L50,214.161137 Z" id="形状结合" fill="#3EAF7C"></path>
                <polygon id="路径" fill="#EBEBEB" points="76.5 13.5545024 76.5 189.763033 208.5 206.028436 208.5 28.464455"></polygon>
                <polygon id="路径" fill="#EBEBEB" transform="translate(289.500000, 109.791469) scale(-1, 1) translate(-289.500000, -109.791469) " points="223.5 13.5545024 223.5 189.763033 355.5 206.028436 355.5 28.464455"></polygon>
                <path d="M51.3118963,237.203791 L374.688104,237.203791 C374.89121,237.203791 375.089501,237.265638 375.256594,237.381101 L425.56849,272.147318 C425.838706,272.334041 426,272.641554 426,272.970008 L426,285 C426,285.552285 425.552285,286 425,286 L1,286 C0.44771525,286 6.76353751e-17,285.552285 0,285 L0,272.970008 C-1.51246357e-16,272.641554 0.161293692,272.334041 0.431509797,272.147318 L50.7434061,237.381101 C50.9104993,237.265638 51.1087903,237.203791 51.3118963,237.203791 Z" id="路径-3" fill="#3EAF7C"></path>
                <path d="M278.279102,271.090047 L147.720898,271.090047 C147.168613,271.090047 146.720898,270.642332 146.720898,270.090047 C146.720898,269.845822 146.810272,269.61004 146.972161,269.42718 L157.201532,257.872677 C157.391334,257.658288 157.663933,257.535545 157.950268,257.535545 L268.049732,257.535545 C268.336067,257.535545 268.608666,257.658288 268.798468,257.872677 L279.027839,269.42718 C279.393931,269.840696 279.355486,270.472692 278.94197,270.838784 C278.75911,271.000673 278.523327,271.090047 278.279102,271.090047 Z" id="路径-4" fill="#EBEBEB"></path>
            </g>
        </g>
    </g>
</svg>