<svg xmlns="http://www.w3.org/2000/svg" width="512" height="512" viewBox="0 0 512 512">
  <defs>
    <linearGradient id="bg" x1="0" y1="0" x2="1" y2="1">
      <stop offset="0%" stop-color="#FF7A18"/>
      <stop offset="55%" stop-color="#FFB040"/>
      <stop offset="100%" stop-color="#2AA8FF"/>
    </linearGradient>
    <filter id="soft" x="-20%" y="-20%" width="140%" height="140%">
      <feDropShadow dx="0" dy="6" stdDeviation="8" flood-color="#000000" flood-opacity="0.18"/>
    </filter>
  </defs>

  <rect x="24" y="24" width="464" height="464" rx="110" fill="url(#bg)"/>
  <path d="M70 150 C 160 60 300 60 430 110" fill="none" stroke="#FFFFFF" stroke-opacity="0.16" stroke-width="28" stroke-linecap="round"/>

  <g filter="url(#soft)">
    <path d="M356 164
             C 318 122 254 112 206 132
             C 154 154 144 214 184 242
             C 210 260 246 264 282 270
             C 340 280 372 306 360 356
             C 344 424 248 430 196 390
             C 172 372 160 348 158 334"
          fill="none" stroke="#FFFFFF" stroke-width="64" stroke-linecap="round" stroke-linejoin="round"/>
  </g>

  <g opacity="0.95">
    <circle cx="356" cy="164" r="18" fill="#FFFFFF"/>
    <circle cx="184" cy="242" r="14" fill="#FFFFFF"/>
    <circle cx="360" cy="356" r="14" fill="#FFFFFF"/>
    <circle cx="158" cy="334" r="12" fill="#FFFFFF"/>
  </g>

  <g opacity="0.9" transform="translate(392 108) rotate(18)">
    <path d="M0 18 L18 18 L18 0 L30 0 L30 18 L48 18 L48 30 L30 30 L30 48 L18 48 L18 30 L0 30 Z"
          fill="#FFFFFF" opacity="0.22"/>
  </g>
</svg>